<svg width="66" height="11" viewBox="0 0 66 11" fill="none" xmlns="http://www.w3.org/2000/svg">
<path d="M9.65493 5.40749L8.63871 6.7059C8.47481 6.89383 8.36007 7.26968 8.37647 7.52595L8.47481 9.20022C8.54037 10.2253 7.83557 10.7549 6.9177 10.379L5.42616 9.764C5.19669 9.67858 4.80331 9.67858 4.57384 9.764L3.0823 10.379C2.16443 10.7549 1.45963 10.2253 1.52519 9.20022L1.62353 7.52595C1.63993 7.26968 1.52519 6.89383 1.36129 6.7059L0.345068 5.40749C-0.294166 4.6216 -0.0155242 3.7503 0.935131 3.49404L2.49224 3.08401C2.7381 3.01567 3.03313 2.77649 3.16425 2.55439L4.03295 1.15348C4.57384 0.282174 5.42616 0.282174 5.96705 1.15348L6.83575 2.55439C6.96687 2.77649 7.2619 3.01567 7.50776 3.08401L9.06487 3.49404C10.0155 3.7503 10.2942 4.6216 9.65493 5.40749Z" fill="#FBC056"/>
<path d="M23.6549 5.40749L22.6387 6.7059C22.4748 6.89383 22.3601 7.26968 22.3765 7.52595L22.4748 9.20022C22.5404 10.2253 21.8356 10.7549 20.9177 10.379L19.4262 9.764C19.1967 9.67858 18.8033 9.67858 18.5738 9.764L17.0823 10.379C16.1644 10.7549 15.4596 10.2253 15.5252 9.20022L15.6235 7.52595C15.6399 7.26968 15.5252 6.89383 15.3613 6.7059L14.3451 5.40749C13.7058 4.6216 13.9845 3.7503 14.9351 3.49404L16.4922 3.08401C16.7381 3.01567 17.0331 2.77649 17.1643 2.55439L18.033 1.15348C18.5738 0.282174 19.4262 0.282174 19.967 1.15348L20.8357 2.55439C20.9669 2.77649 21.2619 3.01567 21.5078 3.08401L23.0649 3.49404C24.0155 3.7503 24.2942 4.6216 23.6549 5.40749Z" fill="#FBC056"/>
<path d="M37.6549 5.40749L36.6387 6.7059C36.4748 6.89383 36.3601 7.26968 36.3765 7.52595L36.4748 9.20022C36.5404 10.2253 35.8356 10.7549 34.9177 10.379L33.4262 9.764C33.1967 9.67858 32.8033 9.67858 32.5738 9.764L31.0823 10.379C30.1644 10.7549 29.4596 10.2253 29.5252 9.20022L29.6235 7.52595C29.6399 7.26968 29.5252 6.89383 29.3613 6.7059L28.3451 5.40749C27.7058 4.6216 27.9845 3.7503 28.9351 3.49404L30.4922 3.08401C30.7381 3.01567 31.0331 2.77649 31.1643 2.55439L32.033 1.15348C32.5738 0.282174 33.4262 0.282174 33.967 1.15348L34.8357 2.55439C34.9669 2.77649 35.2619 3.01567 35.5078 3.08401L37.0649 3.49404C38.0155 3.7503 38.2942 4.6216 37.6549 5.40749Z" fill="#FBC056"/>
<path d="M51.6549 5.40749L50.6387 6.7059C50.4748 6.89383 50.3601 7.26968 50.3765 7.52595L50.4748 9.20022C50.5404 10.2253 49.8356 10.7549 48.9177 10.379L47.4262 9.764C47.1967 9.67858 46.8033 9.67858 46.5738 9.764L45.0823 10.379C44.1644 10.7549 43.4596 10.2253 43.5252 9.20022L43.6235 7.52595C43.6399 7.26968 43.5252 6.89383 43.3613 6.7059L42.3451 5.40749C41.7058 4.6216 41.9845 3.7503 42.9351 3.49404L44.4922 3.08401C44.7381 3.01567 45.0331 2.77649 45.1643 2.55439L46.033 1.15348C46.5738 0.282174 47.4262 0.282174 47.967 1.15348L48.8357 2.55439C48.9669 2.77649 49.2619 3.01567 49.5078 3.08401L51.0649 3.49404C52.0155 3.7503 52.2942 4.6216 51.6549 5.40749Z" fill="#FBC056"/>
<path d="M65.6549 5.40749L64.6387 6.7059C64.4748 6.89383 64.3601 7.26968 64.3765 7.52595L64.4748 9.20022C64.5404 10.2253 63.8356 10.7549 62.9177 10.379L61.4262 9.764C61.1967 9.67858 60.8033 9.67858 60.5738 9.764L59.0823 10.379C58.1644 10.7549 57.4596 10.2253 57.5252 9.20022L57.6235 7.52595C57.6399 7.26968 57.5252 6.89383 57.3613 6.7059L56.3451 5.40749C55.7058 4.6216 55.9845 3.7503 56.9351 3.49404L58.4922 3.08401C58.7381 3.01567 59.0331 2.77649 59.1643 2.55439L60.033 1.15348C60.5738 0.282174 61.4262 0.282174 61.967 1.15348L62.8357 2.55439C62.9669 2.77649 63.2619 3.01567 63.5078 3.08401L65.0649 3.49404C66.0155 3.7503 66.2942 4.6216 65.6549 5.40749Z" fill="#E7E7E7"/>
</svg>